<?xml version="1.0" standalone="no"?>
<!DOCTYPE svg PUBLIC "-//W3C//DTD SVG 20010904//EN"
 "http://www.w3.org/TR/2001/REC-SVG-20010904/DTD/svg10.dtd">
<svg version="1.0" xmlns="http://www.w3.org/2000/svg"
 width="193.000000pt" height="193.000000pt" viewBox="0 0 193.000000 193.000000"
 preserveAspectRatio="xMidYMid meet">

<g transform="translate(0.000000,193.000000) scale(0.100000,-0.100000)"
fill="#000000" stroke="none">
<path d="M1470 1444 c-58 -13 -132 -33 -164 -44 -33 -11 -75 -20 -94 -20 -24
0 -41 -8 -60 -29 -34 -36 -63 -51 -101 -51 -22 0 -36 -9 -55 -33 -49 -64 -62
-65 -168 -12 -87 43 -102 47 -203 56 -60 5 -115 7 -122 5 -24 -10 -14 -72 20
-122 28 -43 134 -135 168 -146 7 -2 9 -9 5 -17 -6 -9 -11 -9 -21 -1 -16 13
-39 4 -29 -11 3 -5 0 -8 -8 -7 -8 2 -12 -5 -10 -21 3 -28 -15 -43 -39 -35 -24
7 -53 -24 -38 -42 9 -11 1 -25 -35 -66 -39 -45 -43 -54 -29 -59 10 -4 41 2 68
13 48 18 209 106 268 146 l27 19 118 -47 c64 -26 164 -62 222 -81 58 -18 107
-35 109 -36 2 -1 -2 -16 -8 -32 -11 -25 -10 -33 5 -57 17 -25 19 -25 29 -9 31
54 56 74 84 69 22 -5 29 -1 39 21 7 14 12 34 12 44 0 11 24 37 56 62 l56 43
-37 14 c-36 14 -39 14 -98 -18 l-62 -32 -150 92 c-82 50 -154 95 -158 99 -10
9 185 138 367 243 120 69 169 109 149 121 -4 2 -55 -6 -113 -19z m95 -3 c-6
-5 -66 -42 -135 -82 -69 -40 -194 -117 -278 -172 l-153 -100 -37 17 c-20 9
-48 25 -61 35 l-24 18 62 41 c61 39 63 40 90 24 41 -23 63 -10 56 31 -6 31 -4
34 39 54 39 19 46 20 57 7 15 -19 69 -47 76 -41 2 3 0 22 -6 43 -6 21 -9 40
-7 42 9 9 158 55 231 72 97 22 102 23 90 11z m-355 -81 c0 -5 -10 -10 -22 -9
-22 0 -22 1 -3 9 11 5 21 9 23 9 1 1 2 -3 2 -9z m28 -62 c-2 -4 -14 -1 -27 8
-23 17 -23 18 -5 31 16 12 19 11 26 -8 5 -12 7 -26 6 -31z m-574 -7 c11 -4 15
-10 9 -14 -5 -3 -19 0 -29 8 -20 15 -11 18 20 6z m141 -40 c33 -16 69 -36 80
-44 20 -16 20 -16 -3 -32 -29 -21 -20 -33 55 -76 47 -27 58 -30 79 -20 30 13
35 11 219 -101 201 -123 207 -130 173 -175 -12 -15 -104 11 -323 92 -255 94
-405 168 -494 243 l-35 29 28 28 c15 15 29 40 33 55 5 27 7 28 31 17 21 -10
27 -9 36 6 13 22 37 17 121 -22z m245 34 c0 -2 -10 -9 -22 -15 -22 -11 -22
-10 -4 4 21 17 26 19 26 11z m20 -40 c0 -28 -3 -29 -31 -14 -20 10 -20 11 -2
24 26 20 33 18 33 -10z m-290 -244 l54 -28 -49 -32 c-65 -40 -260 -141 -275
-141 -6 0 -3 10 7 25 10 13 23 23 30 20 7 -2 15 1 19 7 4 7 3 8 -4 4 -17 -10
-15 3 3 20 9 9 23 13 35 9 30 -9 42 2 29 27 -15 28 12 49 51 41 33 -6 45 9 30
37 -11 20 -6 41 8 40 4 -1 32 -14 62 -29z m759 -57 c2 -2 2 -5 0 -7 -2 -2 -24
-20 -49 -40 l-46 -36 -28 18 -27 18 53 31 c47 27 79 32 97 16z m-194 -164 c3
-6 -3 -22 -14 -36 -17 -21 -22 -23 -27 -11 -6 17 12 57 26 57 5 0 12 -5 15
-10z"/>
<path d="M722 1248 c5 -15 28 -18 29 -3 0 6 -7 12 -17 13 -10 3 -15 -1 -12
-10z"/>
<path d="M775 1230 c-8 -13 4 -32 16 -25 12 8 12 35 0 35 -6 0 -13 -4 -16 -10z"/>
<path d="M1055 1050 c3 -5 13 -10 21 -10 8 0 12 5 9 10 -3 6 -13 10 -21 10 -8
0 -12 -4 -9 -10z"/>
<path d="M1106 1033 c-11 -11 -6 -23 9 -23 8 0 15 4 15 9 0 13 -16 22 -24 14z"/>
<path d="M1146 1013 c-11 -11 -6 -23 9 -23 8 0 15 4 15 9 0 13 -16 22 -24 14z"/>
<path d="M1220 956 c0 -9 7 -16 16 -16 9 0 14 5 12 12 -6 18 -28 21 -28 4z"/>
<path d="M1260 930 c0 -5 7 -10 15 -10 8 0 15 5 15 10 0 6 -7 10 -15 10 -8 0
-15 -4 -15 -10z"/>
<path d="M658 939 c6 -9 8 -20 4 -25 -4 -4 2 -2 13 6 30 21 32 24 14 17 -9 -3
-23 0 -30 6 -11 10 -11 9 -1 -4z"/>
<path d="M580 869 c0 -5 5 -7 10 -4 6 3 10 8 10 11 0 2 -4 4 -10 4 -5 0 -10
-5 -10 -11z"/>
<path d="M1630 725 c14 -8 32 -14 40 -14 8 0 0 6 -19 14 -42 19 -54 19 -21 0z"/>
<path d="M1707 699 c7 -7 15 -10 18 -7 3 3 -2 9 -12 12 -14 6 -15 5 -6 -5z"/>
</g>
</svg>
